<svg id="svg" version="1.1" xmlns="http://www.w3.org/2000/svg" xmlns:xlink="http://www.w3.org/1999/xlink" width="400" height="400" viewBox="0, 0, 400,400"><g id="svgg"><path id="path0" d="M253.674 8.527 C 252.136 11.016,253.929 14.762,257.660 16.850 C 271.137 24.392,258.016 31.351,238.667 26.924 C 217.089 21.986,196.087 30.611,187.658 47.873 C 184.546 54.245,173.092 65.431,162.204 72.730 C 128.870 95.076,111.330 149.855,127.861 179.989 L 133.340 189.979 137.192 177.989 C 145.235 152.955,155.753 147.530,175.972 157.985 C 184.449 162.369,188.305 162.742,190.384 159.379 C 195.461 151.164,179.200 143.244,161.215 145.170 C 145.626 146.841,144.310 146.222,142.741 136.484 C 141.812 130.718,141.544 132.750,142.145 140.999 C 142.747 149.249,141.610 157.005,139.619 158.235 C 134.549 161.369,135.096 131.787,140.390 116.602 C 142.879 109.461,146.610 105.141,149.008 106.623 C 151.333 108.060,152.113 107.420,150.741 105.199 C 147.619 100.147,166.056 82.326,171.149 85.474 C 176.904 89.031,204.303 93.163,220.901 92.978 C 243.018 92.731,264.484 116.972,261.454 138.774 C 259.773 150.865,260.296 152.764,263.992 148.000 C 267.691 143.233,268.036 144.465,265.675 154.000 C 264.040 160.600,263.060 174.133,263.497 184.074 C 264.197 200.012,262.619 203.769,250.146 215.859 C 242.366 223.400,236.000 231.916,236.000 234.785 C 236.000 242.211,231.862 241.264,221.412 231.448 C 214.513 224.966,213.229 221.178,216.108 215.797 C 218.699 210.958,218.063 204.451,214.110 195.349 C 210.922 188.007,208.243 184.250,208.157 187.000 C 208.070 189.750,203.629 192.000,198.286 192.000 C 180.932 192.000,172.101 205.062,182.034 216.037 C 190.551 225.449,164.521 240.732,154.351 232.291 C 150.906 229.432,148.926 225.738,149.950 224.081 C 150.974 222.425,148.704 218.254,144.906 214.814 C 138.483 208.995,138.000 209.587,138.000 223.279 C 138.000 231.376,139.687 239.215,141.750 240.700 C 143.812 242.184,145.875 248.812,146.333 255.429 C 147.285 269.177,163.540 306.501,176.506 324.710 C 184.787 336.340,184.922 337.708,178.964 349.510 C 175.496 356.379,171.804 369.479,170.761 378.621 L 168.863 395.242 183.692 396.656 C 197.356 397.959,198.382 397.338,196.741 388.755 C 195.476 382.138,193.720 380.680,190.680 383.720 C 177.475 396.925,169.337 370.641,181.486 354.027 C 186.702 346.894,187.284 347.102,193.326 358.262 C 200.700 371.884,201.392 370.801,196.411 353.434 C 193.244 342.391,194.320 339.338,205.562 327.460 C 238.392 292.776,249.100 274.230,243.060 262.517 C 240.347 257.254,240.509 255.843,243.608 257.758 C 246.157 259.333,249.698 256.055,252.007 249.980 C 257.836 234.650,256.965 231.155,248.025 233.992 C 241.913 235.932,240.609 235.066,242.444 230.285 C 243.761 226.853,246.101 224.826,247.644 225.780 C 250.171 227.342,260.515 216.464,277.867 194.000 C 283.720 186.423,283.834 186.596,280.023 197.260 C 271.638 220.728,278.949 224.723,298.378 207.291 C 303.243 202.926,309.519 200.834,313.344 202.302 C 317.468 203.884,320.871 202.386,322.440 198.296 C 324.071 194.046,327.593 192.601,332.517 194.164 C 339.369 196.339,339.636 195.577,335.334 186.136 C 330.406 175.320,339.762 158.429,346.789 165.456 C 348.428 167.094,347.135 170.062,343.918 172.051 C 339.240 174.942,339.068 176.668,343.062 180.662 C 356.575 194.175,368.765 149.381,355.820 133.783 C 353.303 130.750,352.193 125.958,353.353 123.134 C 354.681 119.899,356.474 121.329,358.197 127.000 C 359.702 131.950,362.523 136.000,364.467 136.000 C 370.032 136.000,368.592 122.312,362.127 113.765 C 358.897 109.494,356.197 100.068,356.127 92.818 C 356.002 79.856,341.514 60.000,332.182 60.000 C 329.882 60.000,328.000 57.870,328.000 55.267 C 328.000 34.695,262.830 -6.288,253.674 8.527 M223.000 146.865 C 216.950 147.782,211.850 149.762,211.667 151.266 C 211.483 152.770,210.892 157.945,210.352 162.767 L 209.371 171.534 226.356 161.580 L 243.340 151.626 251.670 160.567 C 257.935 167.292,260.000 167.988,260.000 163.374 C 260.000 155.634,247.202 143.807,239.685 144.599 C 236.558 144.929,229.050 145.949,223.000 146.865 M155.920 162.097 C 148.190 171.410,153.706 173.165,161.978 164.025 C 165.972 159.611,167.381 156.000,165.110 156.000 C 162.838 156.000,158.703 158.743,155.920 162.097 M165.414 171.024 C 164.084 176.109,161.146 178.823,158.545 177.368 C 155.924 175.902,156.128 177.118,159.029 180.242 C 163.238 184.775,165.164 184.550,170.857 178.857 C 176.268 173.447,176.644 171.044,172.698 167.098 C 168.751 163.151,167.263 163.954,165.414 171.024 M226.000 172.000 C 224.640 174.200,224.984 176.028,226.764 176.061 C 228.544 176.095,227.512 177.698,224.471 179.624 C 220.159 182.355,220.907 183.749,227.874 185.960 C 233.294 187.680,238.613 186.835,241.403 183.811 C 244.901 180.018,244.804 179.501,241.000 181.649 C 237.705 183.510,236.000 181.664,236.000 176.236 C 236.000 167.604,230.228 165.159,226.000 172.000 M260.618 226.208 C 261.378 230.129,264.422 234.144,267.382 235.129 C 270.825 236.276,272.266 234.352,271.382 229.792 C 270.622 225.871,267.578 221.856,264.618 220.871 C 261.175 219.724,259.734 221.648,260.618 226.208 M165.963 244.000 C 179.683 244.000,190.615 251.887,177.236 252.133 C 171.065 252.247,171.447 253.470,179.824 260.442 C 186.603 266.082,192.804 267.872,199.824 266.213 C 235.385 257.811,247.904 264.638,227.861 281.503 C 204.901 300.823,152.000 287.525,152.000 262.434 C 152.000 260.235,158.093 265.088,165.539 273.218 C 185.082 294.554,236.000 290.704,236.000 267.891 C 236.000 265.951,231.582 268.782,226.182 274.182 C 211.747 288.617,184.995 288.036,171.761 273.000 C 159.450 259.011,143.963 236.500,144.122 232.822 C 144.189 231.270,146.078 233.150,148.320 237.000 C 150.935 241.489,157.263 244.000,165.963 244.000 M206.840 245.167 C 203.079 247.842,203.120 249.063,207.025 250.646 C 209.789 251.767,211.032 254.330,209.789 256.342 C 206.718 261.311,184.000 261.010,184.000 256.000 C 184.000 253.800,186.160 252.000,188.800 252.000 C 192.454 252.000,192.487 250.887,188.939 247.339 C 181.712 240.112,195.265 231.473,204.643 237.330 C 209.888 240.605,210.448 242.602,206.840 245.167 M249.702 245.333 C 248.577 248.267,245.483 250.861,242.828 251.099 C 234.094 251.881,226.079 254.176,221.000 257.349 C 217.577 259.487,216.000 257.737,216.000 251.802 C 216.000 244.870,217.803 243.544,225.000 245.186 C 229.950 246.316,237.600 245.737,242.000 243.901 C 246.400 242.065,250.394 240.436,250.874 240.281 C 251.355 240.127,250.828 242.400,249.702 245.333 M126.000 250.877 C 121.600 251.949,115.300 255.144,112.000 257.977 C 108.700 260.811,97.900 264.434,88.000 266.029 C 54.048 271.499,24.451 294.712,42.566 301.664 C 48.322 303.872,48.445 303.309,43.566 297.092 C 38.536 290.683,38.658 290.515,44.830 295.349 C 49.683 299.149,50.986 304.071,49.330 312.349 C 47.861 319.694,48.663 324.000,51.500 324.000 C 53.975 324.000,56.000 326.806,56.000 330.236 C 56.000 333.666,57.559 335.508,59.465 334.330 C 63.187 332.030,77.217 345.449,74.222 348.445 C 71.160 351.506,106.871 384.533,114.649 385.834 C 118.692 386.510,121.572 389.009,121.048 391.387 C 120.524 393.766,122.797 394.675,126.099 393.409 C 129.401 392.142,134.822 393.363,138.148 396.123 C 147.552 403.927,149.273 398.064,141.813 383.638 C 131.017 362.762,125.295 278.566,133.502 261.355 C 137.005 254.010,138.550 248.209,136.935 248.464 C 135.321 248.719,130.400 249.805,126.000 250.877 M258.516 269.372 C 259.840 279.118,258.132 296.173,254.388 310.577 C 250.875 324.095,247.936 343.895,247.858 354.577 C 247.780 365.260,245.144 378.500,242.000 384.000 C 234.058 397.894,234.582 400.028,245.712 399.107 C 251.053 398.665,254.717 397.160,253.854 395.764 C 251.794 392.430,271.279 374.377,284.000 367.834 C 293.513 362.940,293.714 363.063,288.126 370.345 C 284.895 374.555,289.964 370.370,299.390 361.045 C 309.509 351.034,315.347 342.180,313.646 339.427 C 311.962 336.703,312.496 335.834,314.929 337.338 C 322.422 341.969,329.764 328.945,323.747 321.695 C 318.192 315.002,323.807 308.198,335.000 308.061 C 350.422 307.872,303.119 270.457,273.127 259.121 L 256.255 252.744 258.516 269.372 M328.000 318.000 C 328.000 321.300,329.800 324.000,332.000 324.000 C 334.200 324.000,336.000 321.300,336.000 318.000 C 336.000 314.700,334.200 312.000,332.000 312.000 C 329.800 312.000,328.000 314.700,328.000 318.000 M273.367 381.113 C 271.515 384.256,267.300 387.849,264.000 389.098 C 258.971 391.001,259.053 391.420,264.510 391.684 C 271.517 392.024,282.570 381.236,278.937 377.603 C 277.725 376.391,275.218 377.971,273.367 381.113 " stroke="none" fill="#000000" fill-rule="evenodd"></path></g></svg>